<mxfile host="app.diagrams.net" agent="Mozilla/5.0 (Windows NT 10.0; Win64; x64) AppleWebKit/537.36 (KHTML, like Gecko) Chrome/130.0.0.0 Safari/537.36" version="24.8.4">
  <diagram name="Page-1" id="lVFunfldX__j-fV8zxtV">
    <mxGraphModel dx="4097" dy="1449" grid="1" gridSize="10" guides="1" tooltips="1" connect="1" arrows="1" fold="1" page="1" pageScale="1" pageWidth="850" pageHeight="1100" math="0" shadow="0">
      <root>
        <mxCell id="0" />
        <mxCell id="1" parent="0" />
        <mxCell id="Zg6Z9V_iIzjyqQReN4WH-5" value="PlayerController" style="swimlane;fontStyle=1;align=center;verticalAlign=top;childLayout=stackLayout;horizontal=1;startSize=26;horizontalStack=0;resizeParent=1;resizeParentMax=0;resizeLast=0;collapsible=1;marginBottom=0;whiteSpace=wrap;html=1;" parent="1" vertex="1">
          <mxGeometry x="440" y="180" width="190" height="140" as="geometry" />
        </mxCell>
        <mxCell id="Zg6Z9V_iIzjyqQReN4WH-6" value="" style="line;strokeWidth=1;fillColor=none;align=left;verticalAlign=middle;spacingTop=-1;spacingLeft=3;spacingRight=3;rotatable=0;labelPosition=right;points=[];portConstraint=eastwest;strokeColor=inherit;" parent="Zg6Z9V_iIzjyqQReN4WH-5" vertex="1">
          <mxGeometry y="26" width="190" height="8" as="geometry" />
        </mxCell>
        <mxCell id="Zg6Z9V_iIzjyqQReN4WH-7" value="- Move(): void&lt;div&gt;- InteractWithEnvironment(): void&lt;/div&gt;&lt;div&gt;- PickUpPassenger(): void&lt;/div&gt;" style="text;strokeColor=none;fillColor=none;align=left;verticalAlign=top;spacingLeft=4;spacingRight=4;overflow=hidden;rotatable=0;points=[[0,0.5],[1,0.5]];portConstraint=eastwest;whiteSpace=wrap;html=1;" parent="Zg6Z9V_iIzjyqQReN4WH-5" vertex="1">
          <mxGeometry y="34" width="190" height="106" as="geometry" />
        </mxCell>
        <mxCell id="Zg6Z9V_iIzjyqQReN4WH-9" value="GameManager" style="swimlane;fontStyle=1;align=center;verticalAlign=top;childLayout=stackLayout;horizontal=1;startSize=26;horizontalStack=0;resizeParent=1;resizeParentMax=0;resizeLast=0;collapsible=1;marginBottom=0;whiteSpace=wrap;html=1;" parent="1" vertex="1">
          <mxGeometry x="10" y="130" width="160" height="120" as="geometry" />
        </mxCell>
        <mxCell id="Zg6Z9V_iIzjyqQReN4WH-10" value="- instance" style="text;strokeColor=none;fillColor=none;align=left;verticalAlign=top;spacingLeft=4;spacingRight=4;overflow=hidden;rotatable=0;points=[[0,0.5],[1,0.5]];portConstraint=eastwest;whiteSpace=wrap;html=1;" parent="Zg6Z9V_iIzjyqQReN4WH-9" vertex="1">
          <mxGeometry y="26" width="160" height="26" as="geometry" />
        </mxCell>
        <mxCell id="Zg6Z9V_iIzjyqQReN4WH-11" value="" style="line;strokeWidth=1;fillColor=none;align=left;verticalAlign=middle;spacingTop=-1;spacingLeft=3;spacingRight=3;rotatable=0;labelPosition=right;points=[];portConstraint=eastwest;strokeColor=inherit;" parent="Zg6Z9V_iIzjyqQReN4WH-9" vertex="1">
          <mxGeometry y="52" width="160" height="8" as="geometry" />
        </mxCell>
        <mxCell id="Zg6Z9V_iIzjyqQReN4WH-12" value="+ StartGame(): void&lt;div&gt;+ EndGame(): void&lt;/div&gt;&lt;div&gt;+ RestartGame(): void&lt;/div&gt;" style="text;strokeColor=none;fillColor=none;align=left;verticalAlign=top;spacingLeft=4;spacingRight=4;overflow=hidden;rotatable=0;points=[[0,0.5],[1,0.5]];portConstraint=eastwest;whiteSpace=wrap;html=1;" parent="Zg6Z9V_iIzjyqQReN4WH-9" vertex="1">
          <mxGeometry y="60" width="160" height="60" as="geometry" />
        </mxCell>
        <mxCell id="Zg6Z9V_iIzjyqQReN4WH-13" value="HUDController" style="swimlane;fontStyle=1;align=center;verticalAlign=top;childLayout=stackLayout;horizontal=1;startSize=26;horizontalStack=0;resizeParent=1;resizeParentMax=0;resizeLast=0;collapsible=1;marginBottom=0;whiteSpace=wrap;html=1;" parent="1" vertex="1">
          <mxGeometry x="210" y="130" width="190" height="140" as="geometry" />
        </mxCell>
        <mxCell id="Zg6Z9V_iIzjyqQReN4WH-14" value="" style="line;strokeWidth=1;fillColor=none;align=left;verticalAlign=middle;spacingTop=-1;spacingLeft=3;spacingRight=3;rotatable=0;labelPosition=right;points=[];portConstraint=eastwest;strokeColor=inherit;" parent="Zg6Z9V_iIzjyqQReN4WH-13" vertex="1">
          <mxGeometry y="26" width="190" height="8" as="geometry" />
        </mxCell>
        <mxCell id="Zg6Z9V_iIzjyqQReN4WH-15" value="- UpdateScore(): void&lt;div&gt;- DisplayTime(): void&lt;/div&gt;&lt;div&gt;- UpdateComfortBar(): void&lt;/div&gt;" style="text;strokeColor=none;fillColor=none;align=left;verticalAlign=top;spacingLeft=4;spacingRight=4;overflow=hidden;rotatable=0;points=[[0,0.5],[1,0.5]];portConstraint=eastwest;whiteSpace=wrap;html=1;" parent="Zg6Z9V_iIzjyqQReN4WH-13" vertex="1">
          <mxGeometry y="34" width="190" height="106" as="geometry" />
        </mxCell>
        <mxCell id="Zg6Z9V_iIzjyqQReN4WH-19" value="ObstacleFactory" style="swimlane;fontStyle=1;align=center;verticalAlign=top;childLayout=stackLayout;horizontal=1;startSize=26;horizontalStack=0;resizeParent=1;resizeParentMax=0;resizeLast=0;collapsible=1;marginBottom=0;whiteSpace=wrap;html=1;" parent="1" vertex="1">
          <mxGeometry x="2440" y="180" width="190" height="140" as="geometry" />
        </mxCell>
        <mxCell id="Zg6Z9V_iIzjyqQReN4WH-20" value="" style="line;strokeWidth=1;fillColor=none;align=left;verticalAlign=middle;spacingTop=-1;spacingLeft=3;spacingRight=3;rotatable=0;labelPosition=right;points=[];portConstraint=eastwest;strokeColor=inherit;" parent="Zg6Z9V_iIzjyqQReN4WH-19" vertex="1">
          <mxGeometry y="26" width="190" height="8" as="geometry" />
        </mxCell>
        <mxCell id="Zg6Z9V_iIzjyqQReN4WH-21" value="- CreateObstacle(): void" style="text;strokeColor=none;fillColor=none;align=left;verticalAlign=top;spacingLeft=4;spacingRight=4;overflow=hidden;rotatable=0;points=[[0,0.5],[1,0.5]];portConstraint=eastwest;whiteSpace=wrap;html=1;" parent="Zg6Z9V_iIzjyqQReN4WH-19" vertex="1">
          <mxGeometry y="34" width="190" height="106" as="geometry" />
        </mxCell>
        <mxCell id="Zg6Z9V_iIzjyqQReN4WH-22" value="AudioManager" style="swimlane;fontStyle=1;align=center;verticalAlign=top;childLayout=stackLayout;horizontal=1;startSize=26;horizontalStack=0;resizeParent=1;resizeParentMax=0;resizeLast=0;collapsible=1;marginBottom=0;whiteSpace=wrap;html=1;" parent="1" vertex="1">
          <mxGeometry x="-200" y="130" width="160" height="120" as="geometry" />
        </mxCell>
        <mxCell id="Zg6Z9V_iIzjyqQReN4WH-23" value="- instance" style="text;strokeColor=none;fillColor=none;align=left;verticalAlign=top;spacingLeft=4;spacingRight=4;overflow=hidden;rotatable=0;points=[[0,0.5],[1,0.5]];portConstraint=eastwest;whiteSpace=wrap;html=1;" parent="Zg6Z9V_iIzjyqQReN4WH-22" vertex="1">
          <mxGeometry y="26" width="160" height="26" as="geometry" />
        </mxCell>
        <mxCell id="Zg6Z9V_iIzjyqQReN4WH-24" value="" style="line;strokeWidth=1;fillColor=none;align=left;verticalAlign=middle;spacingTop=-1;spacingLeft=3;spacingRight=3;rotatable=0;labelPosition=right;points=[];portConstraint=eastwest;strokeColor=inherit;" parent="Zg6Z9V_iIzjyqQReN4WH-22" vertex="1">
          <mxGeometry y="52" width="160" height="8" as="geometry" />
        </mxCell>
        <mxCell id="Zg6Z9V_iIzjyqQReN4WH-25" value="+ PlaySound(): void&lt;div&gt;+ StopSound(): void&lt;/div&gt;" style="text;strokeColor=none;fillColor=none;align=left;verticalAlign=top;spacingLeft=4;spacingRight=4;overflow=hidden;rotatable=0;points=[[0,0.5],[1,0.5]];portConstraint=eastwest;whiteSpace=wrap;html=1;" parent="Zg6Z9V_iIzjyqQReN4WH-22" vertex="1">
          <mxGeometry y="60" width="160" height="60" as="geometry" />
        </mxCell>
        <mxCell id="ju_lTgfzVeVkISwV9ZIi-1" value="PersonController" style="swimlane;fontStyle=1;align=center;verticalAlign=top;childLayout=stackLayout;horizontal=1;startSize=26;horizontalStack=0;resizeParent=1;resizeParentMax=0;resizeLast=0;collapsible=1;marginBottom=0;whiteSpace=wrap;html=1;" vertex="1" parent="1">
          <mxGeometry x="800" y="180" width="190" height="140" as="geometry" />
        </mxCell>
        <mxCell id="ju_lTgfzVeVkISwV9ZIi-2" value="" style="line;strokeWidth=1;fillColor=none;align=left;verticalAlign=middle;spacingTop=-1;spacingLeft=3;spacingRight=3;rotatable=0;labelPosition=right;points=[];portConstraint=eastwest;strokeColor=inherit;" vertex="1" parent="ju_lTgfzVeVkISwV9ZIi-1">
          <mxGeometry y="26" width="190" height="8" as="geometry" />
        </mxCell>
        <mxCell id="ju_lTgfzVeVkISwV9ZIi-3" value="+ Move()&lt;div&gt;+ Interact()&lt;/div&gt;" style="text;strokeColor=none;fillColor=none;align=left;verticalAlign=top;spacingLeft=4;spacingRight=4;overflow=hidden;rotatable=0;points=[[0,0.5],[1,0.5]];portConstraint=eastwest;whiteSpace=wrap;html=1;" vertex="1" parent="ju_lTgfzVeVkISwV9ZIi-1">
          <mxGeometry y="34" width="190" height="106" as="geometry" />
        </mxCell>
        <mxCell id="ju_lTgfzVeVkISwV9ZIi-4" value="VehicleController" style="swimlane;fontStyle=1;align=center;verticalAlign=top;childLayout=stackLayout;horizontal=1;startSize=26;horizontalStack=0;resizeParent=1;resizeParentMax=0;resizeLast=0;collapsible=1;marginBottom=0;whiteSpace=wrap;html=1;" vertex="1" parent="1">
          <mxGeometry x="1650" y="180" width="190" height="140" as="geometry" />
        </mxCell>
        <mxCell id="ju_lTgfzVeVkISwV9ZIi-5" value="" style="line;strokeWidth=1;fillColor=none;align=left;verticalAlign=middle;spacingTop=-1;spacingLeft=3;spacingRight=3;rotatable=0;labelPosition=right;points=[];portConstraint=eastwest;strokeColor=inherit;" vertex="1" parent="ju_lTgfzVeVkISwV9ZIi-4">
          <mxGeometry y="26" width="190" height="8" as="geometry" />
        </mxCell>
        <mxCell id="ju_lTgfzVeVkISwV9ZIi-6" value="+ Drive()&lt;div&gt;+ Brake()&lt;/div&gt;" style="text;strokeColor=none;fillColor=none;align=left;verticalAlign=top;spacingLeft=4;spacingRight=4;overflow=hidden;rotatable=0;points=[[0,0.5],[1,0.5]];portConstraint=eastwest;whiteSpace=wrap;html=1;" vertex="1" parent="ju_lTgfzVeVkISwV9ZIi-4">
          <mxGeometry y="34" width="190" height="106" as="geometry" />
        </mxCell>
        <mxCell id="ju_lTgfzVeVkISwV9ZIi-13" value="PoliceOfficer" style="swimlane;fontStyle=1;align=center;verticalAlign=top;childLayout=stackLayout;horizontal=1;startSize=26;horizontalStack=0;resizeParent=1;resizeParentMax=0;resizeLast=0;collapsible=1;marginBottom=0;whiteSpace=wrap;html=1;" vertex="1" parent="1">
          <mxGeometry x="700" y="580" width="190" height="140" as="geometry" />
        </mxCell>
        <mxCell id="ju_lTgfzVeVkISwV9ZIi-14" value="" style="line;strokeWidth=1;fillColor=none;align=left;verticalAlign=middle;spacingTop=-1;spacingLeft=3;spacingRight=3;rotatable=0;labelPosition=right;points=[];portConstraint=eastwest;strokeColor=inherit;" vertex="1" parent="ju_lTgfzVeVkISwV9ZIi-13">
          <mxGeometry y="26" width="190" height="8" as="geometry" />
        </mxCell>
        <mxCell id="ju_lTgfzVeVkISwV9ZIi-15" value="+ Chase()" style="text;strokeColor=none;fillColor=none;align=left;verticalAlign=top;spacingLeft=4;spacingRight=4;overflow=hidden;rotatable=0;points=[[0,0.5],[1,0.5]];portConstraint=eastwest;whiteSpace=wrap;html=1;" vertex="1" parent="ju_lTgfzVeVkISwV9ZIi-13">
          <mxGeometry y="34" width="190" height="106" as="geometry" />
        </mxCell>
        <mxCell id="ju_lTgfzVeVkISwV9ZIi-16" value="Citizen" style="swimlane;fontStyle=1;align=center;verticalAlign=top;childLayout=stackLayout;horizontal=1;startSize=26;horizontalStack=0;resizeParent=1;resizeParentMax=0;resizeLast=0;collapsible=1;marginBottom=0;whiteSpace=wrap;html=1;" vertex="1" parent="1">
          <mxGeometry x="700" y="760" width="190" height="140" as="geometry" />
        </mxCell>
        <mxCell id="ju_lTgfzVeVkISwV9ZIi-17" value="" style="line;strokeWidth=1;fillColor=none;align=left;verticalAlign=middle;spacingTop=-1;spacingLeft=3;spacingRight=3;rotatable=0;labelPosition=right;points=[];portConstraint=eastwest;strokeColor=inherit;" vertex="1" parent="ju_lTgfzVeVkISwV9ZIi-16">
          <mxGeometry y="26" width="190" height="8" as="geometry" />
        </mxCell>
        <mxCell id="ju_lTgfzVeVkISwV9ZIi-18" value="&amp;nbsp;" style="text;strokeColor=none;fillColor=none;align=left;verticalAlign=top;spacingLeft=4;spacingRight=4;overflow=hidden;rotatable=0;points=[[0,0.5],[1,0.5]];portConstraint=eastwest;whiteSpace=wrap;html=1;" vertex="1" parent="ju_lTgfzVeVkISwV9ZIi-16">
          <mxGeometry y="34" width="190" height="106" as="geometry" />
        </mxCell>
        <mxCell id="ju_lTgfzVeVkISwV9ZIi-19" value="Client" style="swimlane;fontStyle=1;align=center;verticalAlign=top;childLayout=stackLayout;horizontal=1;startSize=26;horizontalStack=0;resizeParent=1;resizeParentMax=0;resizeLast=0;collapsible=1;marginBottom=0;whiteSpace=wrap;html=1;" vertex="1" parent="1">
          <mxGeometry x="700" y="930" width="190" height="140" as="geometry" />
        </mxCell>
        <mxCell id="ju_lTgfzVeVkISwV9ZIi-20" value="" style="line;strokeWidth=1;fillColor=none;align=left;verticalAlign=middle;spacingTop=-1;spacingLeft=3;spacingRight=3;rotatable=0;labelPosition=right;points=[];portConstraint=eastwest;strokeColor=inherit;" vertex="1" parent="ju_lTgfzVeVkISwV9ZIi-19">
          <mxGeometry y="26" width="190" height="8" as="geometry" />
        </mxCell>
        <mxCell id="ju_lTgfzVeVkISwV9ZIi-21" value="+ RequestTaxi()" style="text;strokeColor=none;fillColor=none;align=left;verticalAlign=top;spacingLeft=4;spacingRight=4;overflow=hidden;rotatable=0;points=[[0,0.5],[1,0.5]];portConstraint=eastwest;whiteSpace=wrap;html=1;" vertex="1" parent="ju_lTgfzVeVkISwV9ZIi-19">
          <mxGeometry y="34" width="190" height="106" as="geometry" />
        </mxCell>
        <mxCell id="ju_lTgfzVeVkISwV9ZIi-22" value="TaxiDriver" style="swimlane;fontStyle=1;align=center;verticalAlign=top;childLayout=stackLayout;horizontal=1;startSize=26;horizontalStack=0;resizeParent=1;resizeParentMax=0;resizeLast=0;collapsible=1;marginBottom=0;whiteSpace=wrap;html=1;" vertex="1" parent="1">
          <mxGeometry x="700" y="1110" width="190" height="140" as="geometry" />
        </mxCell>
        <mxCell id="ju_lTgfzVeVkISwV9ZIi-23" value="" style="line;strokeWidth=1;fillColor=none;align=left;verticalAlign=middle;spacingTop=-1;spacingLeft=3;spacingRight=3;rotatable=0;labelPosition=right;points=[];portConstraint=eastwest;strokeColor=inherit;" vertex="1" parent="ju_lTgfzVeVkISwV9ZIi-22">
          <mxGeometry y="26" width="190" height="8" as="geometry" />
        </mxCell>
        <mxCell id="ju_lTgfzVeVkISwV9ZIi-24" value="+ DriveTaxi()" style="text;strokeColor=none;fillColor=none;align=left;verticalAlign=top;spacingLeft=4;spacingRight=4;overflow=hidden;rotatable=0;points=[[0,0.5],[1,0.5]];portConstraint=eastwest;whiteSpace=wrap;html=1;" vertex="1" parent="ju_lTgfzVeVkISwV9ZIi-22">
          <mxGeometry y="34" width="190" height="106" as="geometry" />
        </mxCell>
        <mxCell id="ju_lTgfzVeVkISwV9ZIi-138" style="edgeStyle=orthogonalEdgeStyle;rounded=0;orthogonalLoop=1;jettySize=auto;html=1;exitX=0.5;exitY=0;exitDx=0;exitDy=0;entryX=1;entryY=0.5;entryDx=0;entryDy=0;" edge="1" parent="1" source="ju_lTgfzVeVkISwV9ZIi-28" target="ju_lTgfzVeVkISwV9ZIi-59">
          <mxGeometry relative="1" as="geometry" />
        </mxCell>
        <mxCell id="ju_lTgfzVeVkISwV9ZIi-28" value="TaxiApp" style="swimlane;fontStyle=1;align=center;verticalAlign=top;childLayout=stackLayout;horizontal=1;startSize=26;horizontalStack=0;resizeParent=1;resizeParentMax=0;resizeLast=0;collapsible=1;marginBottom=0;whiteSpace=wrap;html=1;" vertex="1" parent="1">
          <mxGeometry x="1670" y="1250" width="135" height="140" as="geometry" />
        </mxCell>
        <mxCell id="ju_lTgfzVeVkISwV9ZIi-29" value="" style="line;strokeWidth=1;fillColor=none;align=left;verticalAlign=middle;spacingTop=-1;spacingLeft=3;spacingRight=3;rotatable=0;labelPosition=right;points=[];portConstraint=eastwest;strokeColor=inherit;" vertex="1" parent="ju_lTgfzVeVkISwV9ZIi-28">
          <mxGeometry y="26" width="135" height="8" as="geometry" />
        </mxCell>
        <mxCell id="ju_lTgfzVeVkISwV9ZIi-30" value="+ ReceiveClient()&lt;div&gt;+ CalculateFare()&lt;/div&gt;" style="text;strokeColor=none;fillColor=none;align=left;verticalAlign=top;spacingLeft=4;spacingRight=4;overflow=hidden;rotatable=0;points=[[0,0.5],[1,0.5]];portConstraint=eastwest;whiteSpace=wrap;html=1;" vertex="1" parent="ju_lTgfzVeVkISwV9ZIi-28">
          <mxGeometry y="34" width="135" height="106" as="geometry" />
        </mxCell>
        <mxCell id="ju_lTgfzVeVkISwV9ZIi-37" value="Fence" style="swimlane;fontStyle=1;align=center;verticalAlign=top;childLayout=stackLayout;horizontal=1;startSize=26;horizontalStack=0;resizeParent=1;resizeParentMax=0;resizeLast=0;collapsible=1;marginBottom=0;whiteSpace=wrap;html=1;" vertex="1" parent="1">
          <mxGeometry x="2100" y="1160" width="190" height="140" as="geometry" />
        </mxCell>
        <mxCell id="ju_lTgfzVeVkISwV9ZIi-38" value="" style="line;strokeWidth=1;fillColor=none;align=left;verticalAlign=middle;spacingTop=-1;spacingLeft=3;spacingRight=3;rotatable=0;labelPosition=right;points=[];portConstraint=eastwest;strokeColor=inherit;" vertex="1" parent="ju_lTgfzVeVkISwV9ZIi-37">
          <mxGeometry y="26" width="190" height="8" as="geometry" />
        </mxCell>
        <mxCell id="ju_lTgfzVeVkISwV9ZIi-39" value="&amp;nbsp;" style="text;strokeColor=none;fillColor=none;align=left;verticalAlign=top;spacingLeft=4;spacingRight=4;overflow=hidden;rotatable=0;points=[[0,0.5],[1,0.5]];portConstraint=eastwest;whiteSpace=wrap;html=1;" vertex="1" parent="ju_lTgfzVeVkISwV9ZIi-37">
          <mxGeometry y="34" width="190" height="106" as="geometry" />
        </mxCell>
        <mxCell id="ju_lTgfzVeVkISwV9ZIi-128" style="edgeStyle=orthogonalEdgeStyle;rounded=0;orthogonalLoop=1;jettySize=auto;html=1;exitX=1;exitY=0.25;exitDx=0;exitDy=0;entryX=1;entryY=0.5;entryDx=0;entryDy=0;" edge="1" parent="1" source="ju_lTgfzVeVkISwV9ZIi-46" target="ju_lTgfzVeVkISwV9ZIi-73">
          <mxGeometry relative="1" as="geometry">
            <mxPoint x="2320" y="680" as="targetPoint" />
          </mxGeometry>
        </mxCell>
        <mxCell id="ju_lTgfzVeVkISwV9ZIi-46" value="Buff" style="swimlane;fontStyle=1;align=center;verticalAlign=top;childLayout=stackLayout;horizontal=1;startSize=26;horizontalStack=0;resizeParent=1;resizeParentMax=0;resizeLast=0;collapsible=1;marginBottom=0;whiteSpace=wrap;html=1;" vertex="1" parent="1">
          <mxGeometry x="2100" y="970" width="190" height="140" as="geometry" />
        </mxCell>
        <mxCell id="ju_lTgfzVeVkISwV9ZIi-47" value="" style="line;strokeWidth=1;fillColor=none;align=left;verticalAlign=middle;spacingTop=-1;spacingLeft=3;spacingRight=3;rotatable=0;labelPosition=right;points=[];portConstraint=eastwest;strokeColor=inherit;" vertex="1" parent="ju_lTgfzVeVkISwV9ZIi-46">
          <mxGeometry y="26" width="190" height="8" as="geometry" />
        </mxCell>
        <mxCell id="ju_lTgfzVeVkISwV9ZIi-48" value="&amp;nbsp;" style="text;strokeColor=none;fillColor=none;align=left;verticalAlign=top;spacingLeft=4;spacingRight=4;overflow=hidden;rotatable=0;points=[[0,0.5],[1,0.5]];portConstraint=eastwest;whiteSpace=wrap;html=1;" vertex="1" parent="ju_lTgfzVeVkISwV9ZIi-46">
          <mxGeometry y="34" width="190" height="106" as="geometry" />
        </mxCell>
        <mxCell id="ju_lTgfzVeVkISwV9ZIi-124" style="edgeStyle=orthogonalEdgeStyle;rounded=0;orthogonalLoop=1;jettySize=auto;html=1;exitX=0.75;exitY=0;exitDx=0;exitDy=0;entryX=1;entryY=0.5;entryDx=0;entryDy=0;" edge="1" parent="1" source="ju_lTgfzVeVkISwV9ZIi-49" target="ju_lTgfzVeVkISwV9ZIi-73">
          <mxGeometry relative="1" as="geometry">
            <mxPoint x="2050" y="590" as="targetPoint" />
          </mxGeometry>
        </mxCell>
        <mxCell id="ju_lTgfzVeVkISwV9ZIi-49" value="Debuff" style="swimlane;fontStyle=1;align=center;verticalAlign=top;childLayout=stackLayout;horizontal=1;startSize=26;horizontalStack=0;resizeParent=1;resizeParentMax=0;resizeLast=0;collapsible=1;marginBottom=0;whiteSpace=wrap;html=1;" vertex="1" parent="1">
          <mxGeometry x="2100" y="770" width="190" height="140" as="geometry" />
        </mxCell>
        <mxCell id="ju_lTgfzVeVkISwV9ZIi-50" value="" style="line;strokeWidth=1;fillColor=none;align=left;verticalAlign=middle;spacingTop=-1;spacingLeft=3;spacingRight=3;rotatable=0;labelPosition=right;points=[];portConstraint=eastwest;strokeColor=inherit;" vertex="1" parent="ju_lTgfzVeVkISwV9ZIi-49">
          <mxGeometry y="26" width="190" height="8" as="geometry" />
        </mxCell>
        <mxCell id="ju_lTgfzVeVkISwV9ZIi-51" value="&amp;nbsp;" style="text;strokeColor=none;fillColor=none;align=left;verticalAlign=top;spacingLeft=4;spacingRight=4;overflow=hidden;rotatable=0;points=[[0,0.5],[1,0.5]];portConstraint=eastwest;whiteSpace=wrap;html=1;" vertex="1" parent="ju_lTgfzVeVkISwV9ZIi-49">
          <mxGeometry y="34" width="190" height="106" as="geometry" />
        </mxCell>
        <mxCell id="ju_lTgfzVeVkISwV9ZIi-136" style="edgeStyle=orthogonalEdgeStyle;rounded=0;orthogonalLoop=1;jettySize=auto;html=1;exitX=0.75;exitY=0;exitDx=0;exitDy=0;entryX=0;entryY=0.5;entryDx=0;entryDy=0;" edge="1" parent="1" source="ju_lTgfzVeVkISwV9ZIi-56" target="ju_lTgfzVeVkISwV9ZIi-93">
          <mxGeometry relative="1" as="geometry" />
        </mxCell>
        <mxCell id="ju_lTgfzVeVkISwV9ZIi-142" style="edgeStyle=orthogonalEdgeStyle;rounded=0;orthogonalLoop=1;jettySize=auto;html=1;exitX=0.25;exitY=0;exitDx=0;exitDy=0;" edge="1" parent="1" source="ju_lTgfzVeVkISwV9ZIi-56" target="ju_lTgfzVeVkISwV9ZIi-113">
          <mxGeometry relative="1" as="geometry" />
        </mxCell>
        <mxCell id="ju_lTgfzVeVkISwV9ZIi-56" value="Taxi" style="swimlane;fontStyle=1;align=center;verticalAlign=top;childLayout=stackLayout;horizontal=1;startSize=26;horizontalStack=0;resizeParent=1;resizeParentMax=0;resizeLast=0;collapsible=1;marginBottom=0;whiteSpace=wrap;html=1;" vertex="1" parent="1">
          <mxGeometry x="1550" y="770" width="160" height="300" as="geometry" />
        </mxCell>
        <mxCell id="ju_lTgfzVeVkISwV9ZIi-57" value="- TaxiApp&lt;div&gt;- instance&lt;/div&gt;&lt;div&gt;+ life&lt;/div&gt;&lt;div&gt;+ speed&lt;/div&gt;&lt;div&gt;+ lastLifeValue&lt;/div&gt;&lt;div&gt;+ lastSpeedValue&lt;/div&gt;&lt;div&gt;- timers&lt;/div&gt;&lt;div&gt;- speedMultipliers&lt;/div&gt;&lt;div&gt;- initialSpeed&lt;/div&gt;&lt;div&gt;- isCarryingPassengers&lt;/div&gt;" style="text;strokeColor=none;fillColor=none;align=left;verticalAlign=top;spacingLeft=4;spacingRight=4;overflow=hidden;rotatable=0;points=[[0,0.5],[1,0.5]];portConstraint=eastwest;whiteSpace=wrap;html=1;" vertex="1" parent="ju_lTgfzVeVkISwV9ZIi-56">
          <mxGeometry y="26" width="160" height="154" as="geometry" />
        </mxCell>
        <mxCell id="ju_lTgfzVeVkISwV9ZIi-58" value="" style="line;strokeWidth=1;fillColor=none;align=left;verticalAlign=middle;spacingTop=-1;spacingLeft=3;spacingRight=3;rotatable=0;labelPosition=right;points=[];portConstraint=eastwest;strokeColor=inherit;" vertex="1" parent="ju_lTgfzVeVkISwV9ZIi-56">
          <mxGeometry y="180" width="160" height="8" as="geometry" />
        </mxCell>
        <mxCell id="ju_lTgfzVeVkISwV9ZIi-59" value="+ StartApp(): void&lt;div&gt;+ ApplyObstacle(Obstacle): void&lt;/div&gt;&lt;div&gt;+ RestoreSpeed(Multiplier): void&lt;/div&gt;&lt;div&gt;+ StartRide(): void&lt;/div&gt;&lt;div&gt;+ StopRide(): void&lt;/div&gt;" style="text;strokeColor=none;fillColor=none;align=left;verticalAlign=top;spacingLeft=4;spacingRight=4;overflow=hidden;rotatable=0;points=[[0,0.5],[1,0.5]];portConstraint=eastwest;whiteSpace=wrap;html=1;" vertex="1" parent="ju_lTgfzVeVkISwV9ZIi-56">
          <mxGeometry y="188" width="160" height="112" as="geometry" />
        </mxCell>
        <mxCell id="ju_lTgfzVeVkISwV9ZIi-152" style="edgeStyle=orthogonalEdgeStyle;rounded=0;orthogonalLoop=1;jettySize=auto;html=1;exitX=0.5;exitY=0;exitDx=0;exitDy=0;" edge="1" parent="1" source="ju_lTgfzVeVkISwV9ZIi-60" target="ju_lTgfzVeVkISwV9ZIi-3">
          <mxGeometry relative="1" as="geometry" />
        </mxCell>
        <mxCell id="ju_lTgfzVeVkISwV9ZIi-60" value="Person" style="swimlane;fontStyle=1;align=center;verticalAlign=top;childLayout=stackLayout;horizontal=1;startSize=26;horizontalStack=0;resizeParent=1;resizeParentMax=0;resizeLast=0;collapsible=1;marginBottom=0;whiteSpace=wrap;html=1;" vertex="1" parent="1">
          <mxGeometry x="930" y="400" width="160" height="88" as="geometry" />
        </mxCell>
        <mxCell id="ju_lTgfzVeVkISwV9ZIi-61" value="- Name&lt;div&gt;- Health&lt;/div&gt;&lt;div&gt;- Position&lt;/div&gt;" style="text;strokeColor=none;fillColor=none;align=left;verticalAlign=top;spacingLeft=4;spacingRight=4;overflow=hidden;rotatable=0;points=[[0,0.5],[1,0.5]];portConstraint=eastwest;whiteSpace=wrap;html=1;" vertex="1" parent="ju_lTgfzVeVkISwV9ZIi-60">
          <mxGeometry y="26" width="160" height="54" as="geometry" />
        </mxCell>
        <mxCell id="ju_lTgfzVeVkISwV9ZIi-62" value="" style="line;strokeWidth=1;fillColor=none;align=left;verticalAlign=middle;spacingTop=-1;spacingLeft=3;spacingRight=3;rotatable=0;labelPosition=right;points=[];portConstraint=eastwest;strokeColor=inherit;" vertex="1" parent="ju_lTgfzVeVkISwV9ZIi-60">
          <mxGeometry y="80" width="160" height="8" as="geometry" />
        </mxCell>
        <mxCell id="ju_lTgfzVeVkISwV9ZIi-70" value="Obstacle" style="swimlane;fontStyle=1;align=center;verticalAlign=top;childLayout=stackLayout;horizontal=1;startSize=26;horizontalStack=0;resizeParent=1;resizeParentMax=0;resizeLast=0;collapsible=1;marginBottom=0;whiteSpace=wrap;html=1;" vertex="1" parent="1">
          <mxGeometry x="2060" y="442" width="160" height="178" as="geometry" />
        </mxCell>
        <mxCell id="ju_lTgfzVeVkISwV9ZIi-71" value="+ PursueTaxi&lt;div&gt;+ isSolid&lt;/div&gt;&lt;div&gt;+ Damage&lt;/div&gt;&lt;div&gt;+ SpeedMultiplier&lt;/div&gt;&lt;div&gt;+ EffectDuration&lt;/div&gt;" style="text;strokeColor=none;fillColor=none;align=left;verticalAlign=top;spacingLeft=4;spacingRight=4;overflow=hidden;rotatable=0;points=[[0,0.5],[1,0.5]];portConstraint=eastwest;whiteSpace=wrap;html=1;" vertex="1" parent="ju_lTgfzVeVkISwV9ZIi-70">
          <mxGeometry y="26" width="160" height="84" as="geometry" />
        </mxCell>
        <mxCell id="ju_lTgfzVeVkISwV9ZIi-72" value="" style="line;strokeWidth=1;fillColor=none;align=left;verticalAlign=middle;spacingTop=-1;spacingLeft=3;spacingRight=3;rotatable=0;labelPosition=right;points=[];portConstraint=eastwest;strokeColor=inherit;" vertex="1" parent="ju_lTgfzVeVkISwV9ZIi-70">
          <mxGeometry y="110" width="160" height="8" as="geometry" />
        </mxCell>
        <mxCell id="ju_lTgfzVeVkISwV9ZIi-73" value="+ ApplyEffect(Taxi): void" style="text;strokeColor=none;fillColor=none;align=left;verticalAlign=top;spacingLeft=4;spacingRight=4;overflow=hidden;rotatable=0;points=[[0,0.5],[1,0.5]];portConstraint=eastwest;whiteSpace=wrap;html=1;" vertex="1" parent="ju_lTgfzVeVkISwV9ZIi-70">
          <mxGeometry y="118" width="160" height="60" as="geometry" />
        </mxCell>
        <mxCell id="ju_lTgfzVeVkISwV9ZIi-74" value="FenceFactory" style="swimlane;fontStyle=1;align=center;verticalAlign=top;childLayout=stackLayout;horizontal=1;startSize=26;horizontalStack=0;resizeParent=1;resizeParentMax=0;resizeLast=0;collapsible=1;marginBottom=0;whiteSpace=wrap;html=1;" vertex="1" parent="1">
          <mxGeometry x="2590" y="1090" width="190" height="140" as="geometry" />
        </mxCell>
        <mxCell id="ju_lTgfzVeVkISwV9ZIi-75" value="" style="line;strokeWidth=1;fillColor=none;align=left;verticalAlign=middle;spacingTop=-1;spacingLeft=3;spacingRight=3;rotatable=0;labelPosition=right;points=[];portConstraint=eastwest;strokeColor=inherit;" vertex="1" parent="ju_lTgfzVeVkISwV9ZIi-74">
          <mxGeometry y="26" width="190" height="8" as="geometry" />
        </mxCell>
        <mxCell id="ju_lTgfzVeVkISwV9ZIi-76" value="&amp;nbsp;" style="text;strokeColor=none;fillColor=none;align=left;verticalAlign=top;spacingLeft=4;spacingRight=4;overflow=hidden;rotatable=0;points=[[0,0.5],[1,0.5]];portConstraint=eastwest;whiteSpace=wrap;html=1;" vertex="1" parent="ju_lTgfzVeVkISwV9ZIi-74">
          <mxGeometry y="34" width="190" height="106" as="geometry" />
        </mxCell>
        <mxCell id="ju_lTgfzVeVkISwV9ZIi-77" value="PoliceCarFactory" style="swimlane;fontStyle=1;align=center;verticalAlign=top;childLayout=stackLayout;horizontal=1;startSize=26;horizontalStack=0;resizeParent=1;resizeParentMax=0;resizeLast=0;collapsible=1;marginBottom=0;whiteSpace=wrap;html=1;" vertex="1" parent="1">
          <mxGeometry x="2590" y="1260" width="190" height="140" as="geometry" />
        </mxCell>
        <mxCell id="ju_lTgfzVeVkISwV9ZIi-78" value="" style="line;strokeWidth=1;fillColor=none;align=left;verticalAlign=middle;spacingTop=-1;spacingLeft=3;spacingRight=3;rotatable=0;labelPosition=right;points=[];portConstraint=eastwest;strokeColor=inherit;" vertex="1" parent="ju_lTgfzVeVkISwV9ZIi-77">
          <mxGeometry y="26" width="190" height="8" as="geometry" />
        </mxCell>
        <mxCell id="ju_lTgfzVeVkISwV9ZIi-79" value="&amp;nbsp;" style="text;strokeColor=none;fillColor=none;align=left;verticalAlign=top;spacingLeft=4;spacingRight=4;overflow=hidden;rotatable=0;points=[[0,0.5],[1,0.5]];portConstraint=eastwest;whiteSpace=wrap;html=1;" vertex="1" parent="ju_lTgfzVeVkISwV9ZIi-77">
          <mxGeometry y="34" width="190" height="106" as="geometry" />
        </mxCell>
        <mxCell id="ju_lTgfzVeVkISwV9ZIi-80" value="DebuffFactory" style="swimlane;fontStyle=1;align=center;verticalAlign=top;childLayout=stackLayout;horizontal=1;startSize=26;horizontalStack=0;resizeParent=1;resizeParentMax=0;resizeLast=0;collapsible=1;marginBottom=0;whiteSpace=wrap;html=1;" vertex="1" parent="1">
          <mxGeometry x="2590" y="770" width="190" height="140" as="geometry" />
        </mxCell>
        <mxCell id="ju_lTgfzVeVkISwV9ZIi-81" value="" style="line;strokeWidth=1;fillColor=none;align=left;verticalAlign=middle;spacingTop=-1;spacingLeft=3;spacingRight=3;rotatable=0;labelPosition=right;points=[];portConstraint=eastwest;strokeColor=inherit;" vertex="1" parent="ju_lTgfzVeVkISwV9ZIi-80">
          <mxGeometry y="26" width="190" height="8" as="geometry" />
        </mxCell>
        <mxCell id="ju_lTgfzVeVkISwV9ZIi-82" value="&amp;nbsp;" style="text;strokeColor=none;fillColor=none;align=left;verticalAlign=top;spacingLeft=4;spacingRight=4;overflow=hidden;rotatable=0;points=[[0,0.5],[1,0.5]];portConstraint=eastwest;whiteSpace=wrap;html=1;" vertex="1" parent="ju_lTgfzVeVkISwV9ZIi-80">
          <mxGeometry y="34" width="190" height="106" as="geometry" />
        </mxCell>
        <mxCell id="ju_lTgfzVeVkISwV9ZIi-83" value="BuffFactory" style="swimlane;fontStyle=1;align=center;verticalAlign=top;childLayout=stackLayout;horizontal=1;startSize=26;horizontalStack=0;resizeParent=1;resizeParentMax=0;resizeLast=0;collapsible=1;marginBottom=0;whiteSpace=wrap;html=1;" vertex="1" parent="1">
          <mxGeometry x="2590" y="930" width="190" height="140" as="geometry" />
        </mxCell>
        <mxCell id="ju_lTgfzVeVkISwV9ZIi-84" value="" style="line;strokeWidth=1;fillColor=none;align=left;verticalAlign=middle;spacingTop=-1;spacingLeft=3;spacingRight=3;rotatable=0;labelPosition=right;points=[];portConstraint=eastwest;strokeColor=inherit;" vertex="1" parent="ju_lTgfzVeVkISwV9ZIi-83">
          <mxGeometry y="26" width="190" height="8" as="geometry" />
        </mxCell>
        <mxCell id="ju_lTgfzVeVkISwV9ZIi-85" value="&amp;nbsp;" style="text;strokeColor=none;fillColor=none;align=left;verticalAlign=top;spacingLeft=4;spacingRight=4;overflow=hidden;rotatable=0;points=[[0,0.5],[1,0.5]];portConstraint=eastwest;whiteSpace=wrap;html=1;" vertex="1" parent="ju_lTgfzVeVkISwV9ZIi-83">
          <mxGeometry y="34" width="190" height="106" as="geometry" />
        </mxCell>
        <mxCell id="ju_lTgfzVeVkISwV9ZIi-89" value="Scene" style="swimlane;fontStyle=1;align=center;verticalAlign=top;childLayout=stackLayout;horizontal=1;startSize=26;horizontalStack=0;resizeParent=1;resizeParentMax=0;resizeLast=0;collapsible=1;marginBottom=0;whiteSpace=wrap;html=1;" vertex="1" parent="1">
          <mxGeometry x="2870" y="20" width="190" height="140" as="geometry" />
        </mxCell>
        <mxCell id="ju_lTgfzVeVkISwV9ZIi-90" value="" style="line;strokeWidth=1;fillColor=none;align=left;verticalAlign=middle;spacingTop=-1;spacingLeft=3;spacingRight=3;rotatable=0;labelPosition=right;points=[];portConstraint=eastwest;strokeColor=inherit;" vertex="1" parent="ju_lTgfzVeVkISwV9ZIi-89">
          <mxGeometry y="26" width="190" height="8" as="geometry" />
        </mxCell>
        <mxCell id="ju_lTgfzVeVkISwV9ZIi-91" value="&amp;nbsp;" style="text;strokeColor=none;fillColor=none;align=left;verticalAlign=top;spacingLeft=4;spacingRight=4;overflow=hidden;rotatable=0;points=[[0,0.5],[1,0.5]];portConstraint=eastwest;whiteSpace=wrap;html=1;" vertex="1" parent="ju_lTgfzVeVkISwV9ZIi-89">
          <mxGeometry y="34" width="190" height="106" as="geometry" />
        </mxCell>
        <mxCell id="ju_lTgfzVeVkISwV9ZIi-133" style="edgeStyle=orthogonalEdgeStyle;rounded=0;orthogonalLoop=1;jettySize=auto;html=1;exitX=0.5;exitY=0;exitDx=0;exitDy=0;entryX=1;entryY=0.5;entryDx=0;entryDy=0;" edge="1" parent="1" source="ju_lTgfzVeVkISwV9ZIi-94" target="ju_lTgfzVeVkISwV9ZIi-6">
          <mxGeometry relative="1" as="geometry" />
        </mxCell>
        <mxCell id="ju_lTgfzVeVkISwV9ZIi-94" value="Vehicle" style="swimlane;fontStyle=1;align=center;verticalAlign=top;childLayout=stackLayout;horizontal=1;startSize=26;horizontalStack=0;resizeParent=1;resizeParentMax=0;resizeLast=0;collapsible=1;marginBottom=0;whiteSpace=wrap;html=1;" vertex="1" parent="1">
          <mxGeometry x="1780" y="442" width="160" height="108" as="geometry" />
        </mxCell>
        <mxCell id="ju_lTgfzVeVkISwV9ZIi-93" value="- Speed&lt;div&gt;- Fuel&lt;/div&gt;&lt;div&gt;- Health&lt;/div&gt;&lt;div&gt;- typeOfVehicle&lt;/div&gt;" style="text;strokeColor=none;fillColor=none;align=left;verticalAlign=top;spacingLeft=4;spacingRight=4;overflow=hidden;rotatable=0;points=[[0,0.5],[1,0.5]];portConstraint=eastwest;whiteSpace=wrap;html=1;" vertex="1" parent="ju_lTgfzVeVkISwV9ZIi-94">
          <mxGeometry y="26" width="160" height="74" as="geometry" />
        </mxCell>
        <mxCell id="ju_lTgfzVeVkISwV9ZIi-96" value="" style="line;strokeWidth=1;fillColor=none;align=left;verticalAlign=middle;spacingTop=-1;spacingLeft=3;spacingRight=3;rotatable=0;labelPosition=right;points=[];portConstraint=eastwest;strokeColor=inherit;" vertex="1" parent="ju_lTgfzVeVkISwV9ZIi-94">
          <mxGeometry y="100" width="160" height="8" as="geometry" />
        </mxCell>
        <mxCell id="ju_lTgfzVeVkISwV9ZIi-137" style="edgeStyle=orthogonalEdgeStyle;rounded=0;orthogonalLoop=1;jettySize=auto;html=1;exitX=0.5;exitY=0;exitDx=0;exitDy=0;" edge="1" parent="1" source="ju_lTgfzVeVkISwV9ZIi-98" target="ju_lTgfzVeVkISwV9ZIi-109">
          <mxGeometry relative="1" as="geometry" />
        </mxCell>
        <mxCell id="ju_lTgfzVeVkISwV9ZIi-98" value="SpeedRadar" style="swimlane;fontStyle=1;align=center;verticalAlign=top;childLayout=stackLayout;horizontal=1;startSize=26;horizontalStack=0;resizeParent=1;resizeParentMax=0;resizeLast=0;collapsible=1;marginBottom=0;whiteSpace=wrap;html=1;" vertex="1" parent="1">
          <mxGeometry x="1860" y="1180" width="160" height="300" as="geometry" />
        </mxCell>
        <mxCell id="ju_lTgfzVeVkISwV9ZIi-99" value="- plate&lt;div&gt;- speed&lt;/div&gt;&lt;div&gt;- legalSpeed&lt;/div&gt;&lt;div&gt;+ history&amp;nbsp;&lt;/div&gt;" style="text;strokeColor=none;fillColor=none;align=left;verticalAlign=top;spacingLeft=4;spacingRight=4;overflow=hidden;rotatable=0;points=[[0,0.5],[1,0.5]];portConstraint=eastwest;whiteSpace=wrap;html=1;" vertex="1" parent="ju_lTgfzVeVkISwV9ZIi-98">
          <mxGeometry y="26" width="160" height="154" as="geometry" />
        </mxCell>
        <mxCell id="ju_lTgfzVeVkISwV9ZIi-100" value="" style="line;strokeWidth=1;fillColor=none;align=left;verticalAlign=middle;spacingTop=-1;spacingLeft=3;spacingRight=3;rotatable=0;labelPosition=right;points=[];portConstraint=eastwest;strokeColor=inherit;" vertex="1" parent="ju_lTgfzVeVkISwV9ZIi-98">
          <mxGeometry y="180" width="160" height="8" as="geometry" />
        </mxCell>
        <mxCell id="ju_lTgfzVeVkISwV9ZIi-101" value="+ TriggerDevice(Vehicle): void&lt;div&gt;+ GetLastReading(): string&lt;/div&gt;" style="text;strokeColor=none;fillColor=none;align=left;verticalAlign=top;spacingLeft=4;spacingRight=4;overflow=hidden;rotatable=0;points=[[0,0.5],[1,0.5]];portConstraint=eastwest;whiteSpace=wrap;html=1;" vertex="1" parent="ju_lTgfzVeVkISwV9ZIi-98">
          <mxGeometry y="188" width="160" height="112" as="geometry" />
        </mxCell>
        <mxCell id="ju_lTgfzVeVkISwV9ZIi-141" style="edgeStyle=orthogonalEdgeStyle;rounded=0;orthogonalLoop=1;jettySize=auto;html=1;exitX=0.5;exitY=0;exitDx=0;exitDy=0;entryX=0;entryY=0.5;entryDx=0;entryDy=0;" edge="1" parent="1" source="ju_lTgfzVeVkISwV9ZIi-102" target="ju_lTgfzVeVkISwV9ZIi-113">
          <mxGeometry relative="1" as="geometry" />
        </mxCell>
        <mxCell id="ju_lTgfzVeVkISwV9ZIi-102" value="PoliceDepartment" style="swimlane;fontStyle=1;align=center;verticalAlign=top;childLayout=stackLayout;horizontal=1;startSize=26;horizontalStack=0;resizeParent=1;resizeParentMax=0;resizeLast=0;collapsible=1;marginBottom=0;whiteSpace=wrap;html=1;" vertex="1" parent="1">
          <mxGeometry x="1290" y="520" width="250" height="160" as="geometry" />
        </mxCell>
        <mxCell id="ju_lTgfzVeVkISwV9ZIi-103" value="- policeCars&lt;div&gt;- alert&lt;/div&gt;" style="text;strokeColor=none;fillColor=none;align=left;verticalAlign=top;spacingLeft=4;spacingRight=4;overflow=hidden;rotatable=0;points=[[0,0.5],[1,0.5]];portConstraint=eastwest;whiteSpace=wrap;html=1;" vertex="1" parent="ju_lTgfzVeVkISwV9ZIi-102">
          <mxGeometry y="26" width="250" height="44" as="geometry" />
        </mxCell>
        <mxCell id="ju_lTgfzVeVkISwV9ZIi-104" value="" style="line;strokeWidth=1;fillColor=none;align=left;verticalAlign=middle;spacingTop=-1;spacingLeft=3;spacingRight=3;rotatable=0;labelPosition=right;points=[];portConstraint=eastwest;strokeColor=inherit;" vertex="1" parent="ju_lTgfzVeVkISwV9ZIi-102">
          <mxGeometry y="70" width="250" height="8" as="geometry" />
        </mxCell>
        <mxCell id="ju_lTgfzVeVkISwV9ZIi-105" value="+ RegisterPoliceCars(PoliceCar): void&lt;div&gt;+ NotifyPoliceCars(string LicensePlate): void&lt;/div&gt;" style="text;strokeColor=none;fillColor=none;align=left;verticalAlign=top;spacingLeft=4;spacingRight=4;overflow=hidden;rotatable=0;points=[[0,0.5],[1,0.5]];portConstraint=eastwest;whiteSpace=wrap;html=1;" vertex="1" parent="ju_lTgfzVeVkISwV9ZIi-102">
          <mxGeometry y="78" width="250" height="82" as="geometry" />
        </mxCell>
        <mxCell id="ju_lTgfzVeVkISwV9ZIi-134" style="edgeStyle=orthogonalEdgeStyle;rounded=0;orthogonalLoop=1;jettySize=auto;html=1;exitX=0.5;exitY=0;exitDx=0;exitDy=0;entryX=0;entryY=0.5;entryDx=0;entryDy=0;" edge="1" parent="1" source="ju_lTgfzVeVkISwV9ZIi-106" target="ju_lTgfzVeVkISwV9ZIi-93">
          <mxGeometry relative="1" as="geometry" />
        </mxCell>
        <mxCell id="ju_lTgfzVeVkISwV9ZIi-139" style="edgeStyle=orthogonalEdgeStyle;rounded=0;orthogonalLoop=1;jettySize=auto;html=1;exitX=0.25;exitY=0;exitDx=0;exitDy=0;entryX=1;entryY=0.5;entryDx=0;entryDy=0;" edge="1" parent="1" source="ju_lTgfzVeVkISwV9ZIi-106" target="ju_lTgfzVeVkISwV9ZIi-105">
          <mxGeometry relative="1" as="geometry">
            <Array as="points">
              <mxPoint x="1800" y="680" />
              <mxPoint x="1710" y="680" />
              <mxPoint x="1710" y="639" />
            </Array>
          </mxGeometry>
        </mxCell>
        <mxCell id="ju_lTgfzVeVkISwV9ZIi-106" value="PoliceCar" style="swimlane;fontStyle=1;align=center;verticalAlign=top;childLayout=stackLayout;horizontal=1;startSize=26;horizontalStack=0;resizeParent=1;resizeParentMax=0;resizeLast=0;collapsible=1;marginBottom=0;whiteSpace=wrap;html=1;" vertex="1" parent="1">
          <mxGeometry x="1760" y="770" width="160" height="250" as="geometry" />
        </mxCell>
        <mxCell id="ju_lTgfzVeVkISwV9ZIi-107" value="- isPatrolling&lt;div&gt;- SpeedRadar&lt;/div&gt;&lt;div&gt;- isPursuing&lt;/div&gt;&lt;div&gt;- pursuingVehiclePlate&lt;/div&gt;&lt;div&gt;- PoliceDepartment&lt;/div&gt;&lt;div&gt;+ LicensePlate&lt;/div&gt;&lt;div&gt;&lt;br&gt;&lt;/div&gt;" style="text;strokeColor=none;fillColor=none;align=left;verticalAlign=top;spacingLeft=4;spacingRight=4;overflow=hidden;rotatable=0;points=[[0,0.5],[1,0.5]];portConstraint=eastwest;whiteSpace=wrap;html=1;" vertex="1" parent="ju_lTgfzVeVkISwV9ZIi-106">
          <mxGeometry y="26" width="160" height="104" as="geometry" />
        </mxCell>
        <mxCell id="ju_lTgfzVeVkISwV9ZIi-108" value="" style="line;strokeWidth=1;fillColor=none;align=left;verticalAlign=middle;spacingTop=-1;spacingLeft=3;spacingRight=3;rotatable=0;labelPosition=right;points=[];portConstraint=eastwest;strokeColor=inherit;" vertex="1" parent="ju_lTgfzVeVkISwV9ZIi-106">
          <mxGeometry y="130" width="160" height="8" as="geometry" />
        </mxCell>
        <mxCell id="ju_lTgfzVeVkISwV9ZIi-109" value="+ StartApp(): void&lt;div&gt;+ ApplyObstacle(Obstacle): void&lt;/div&gt;&lt;div&gt;+ RestoreSpeed(Multiplier): void&lt;/div&gt;&lt;div&gt;+ StartRide(): void&lt;/div&gt;&lt;div&gt;+ StopRide(): void&lt;/div&gt;" style="text;strokeColor=none;fillColor=none;align=left;verticalAlign=top;spacingLeft=4;spacingRight=4;overflow=hidden;rotatable=0;points=[[0,0.5],[1,0.5]];portConstraint=eastwest;whiteSpace=wrap;html=1;" vertex="1" parent="ju_lTgfzVeVkISwV9ZIi-106">
          <mxGeometry y="138" width="160" height="112" as="geometry" />
        </mxCell>
        <mxCell id="ju_lTgfzVeVkISwV9ZIi-110" value="City" style="swimlane;fontStyle=1;align=center;verticalAlign=top;childLayout=stackLayout;horizontal=1;startSize=26;horizontalStack=0;resizeParent=1;resizeParentMax=0;resizeLast=0;collapsible=1;marginBottom=0;whiteSpace=wrap;html=1;" vertex="1" parent="1">
          <mxGeometry x="1320" y="240" width="250" height="160" as="geometry" />
        </mxCell>
        <mxCell id="ju_lTgfzVeVkISwV9ZIi-111" value="- PoliceDepartment&lt;br&gt;- taxis" style="text;strokeColor=none;fillColor=none;align=left;verticalAlign=top;spacingLeft=4;spacingRight=4;overflow=hidden;rotatable=0;points=[[0,0.5],[1,0.5]];portConstraint=eastwest;whiteSpace=wrap;html=1;" vertex="1" parent="ju_lTgfzVeVkISwV9ZIi-110">
          <mxGeometry y="26" width="250" height="44" as="geometry" />
        </mxCell>
        <mxCell id="ju_lTgfzVeVkISwV9ZIi-112" value="" style="line;strokeWidth=1;fillColor=none;align=left;verticalAlign=middle;spacingTop=-1;spacingLeft=3;spacingRight=3;rotatable=0;labelPosition=right;points=[];portConstraint=eastwest;strokeColor=inherit;" vertex="1" parent="ju_lTgfzVeVkISwV9ZIi-110">
          <mxGeometry y="70" width="250" height="8" as="geometry" />
        </mxCell>
        <mxCell id="ju_lTgfzVeVkISwV9ZIi-113" value="+ RegisterTaxi(Taxi): void&lt;div&gt;+ RemoveTaxi(string LicensePlate): void&lt;/div&gt;" style="text;strokeColor=none;fillColor=none;align=left;verticalAlign=top;spacingLeft=4;spacingRight=4;overflow=hidden;rotatable=0;points=[[0,0.5],[1,0.5]];portConstraint=eastwest;whiteSpace=wrap;html=1;" vertex="1" parent="ju_lTgfzVeVkISwV9ZIi-110">
          <mxGeometry y="78" width="250" height="82" as="geometry" />
        </mxCell>
        <mxCell id="ju_lTgfzVeVkISwV9ZIi-140" style="edgeStyle=orthogonalEdgeStyle;rounded=0;orthogonalLoop=1;jettySize=auto;html=1;exitX=0.75;exitY=0;exitDx=0;exitDy=0;" edge="1" parent="1" source="ju_lTgfzVeVkISwV9ZIi-114" target="ju_lTgfzVeVkISwV9ZIi-105">
          <mxGeometry relative="1" as="geometry" />
        </mxCell>
        <mxCell id="ju_lTgfzVeVkISwV9ZIi-114" value="Alert" style="swimlane;fontStyle=1;align=center;verticalAlign=top;childLayout=stackLayout;horizontal=1;startSize=26;horizontalStack=0;resizeParent=1;resizeParentMax=0;resizeLast=0;collapsible=1;marginBottom=0;whiteSpace=wrap;html=1;" vertex="1" parent="1">
          <mxGeometry x="1060" y="900" width="270" height="116" as="geometry" />
        </mxCell>
        <mxCell id="ju_lTgfzVeVkISwV9ZIi-116" value="" style="line;strokeWidth=1;fillColor=none;align=left;verticalAlign=middle;spacingTop=-1;spacingLeft=3;spacingRight=3;rotatable=0;labelPosition=right;points=[];portConstraint=eastwest;strokeColor=inherit;" vertex="1" parent="ju_lTgfzVeVkISwV9ZIi-114">
          <mxGeometry y="26" width="270" height="8" as="geometry" />
        </mxCell>
        <mxCell id="ju_lTgfzVeVkISwV9ZIi-117" value="+ ActivateAlert(string vehicleLicensePlate): void" style="text;strokeColor=none;fillColor=none;align=left;verticalAlign=top;spacingLeft=4;spacingRight=4;overflow=hidden;rotatable=0;points=[[0,0.5],[1,0.5]];portConstraint=eastwest;whiteSpace=wrap;html=1;" vertex="1" parent="ju_lTgfzVeVkISwV9ZIi-114">
          <mxGeometry y="34" width="270" height="82" as="geometry" />
        </mxCell>
        <mxCell id="ju_lTgfzVeVkISwV9ZIi-118" value="ObstacleController" style="swimlane;fontStyle=1;align=center;verticalAlign=top;childLayout=stackLayout;horizontal=1;startSize=26;horizontalStack=0;resizeParent=1;resizeParentMax=0;resizeLast=0;collapsible=1;marginBottom=0;whiteSpace=wrap;html=1;" vertex="1" parent="1">
          <mxGeometry x="2045" y="180" width="190" height="140" as="geometry" />
        </mxCell>
        <mxCell id="ju_lTgfzVeVkISwV9ZIi-119" value="" style="line;strokeWidth=1;fillColor=none;align=left;verticalAlign=middle;spacingTop=-1;spacingLeft=3;spacingRight=3;rotatable=0;labelPosition=right;points=[];portConstraint=eastwest;strokeColor=inherit;" vertex="1" parent="ju_lTgfzVeVkISwV9ZIi-118">
          <mxGeometry y="26" width="190" height="8" as="geometry" />
        </mxCell>
        <mxCell id="ju_lTgfzVeVkISwV9ZIi-120" value="&amp;nbsp;" style="text;strokeColor=none;fillColor=none;align=left;verticalAlign=top;spacingLeft=4;spacingRight=4;overflow=hidden;rotatable=0;points=[[0,0.5],[1,0.5]];portConstraint=eastwest;whiteSpace=wrap;html=1;" vertex="1" parent="ju_lTgfzVeVkISwV9ZIi-118">
          <mxGeometry y="34" width="190" height="106" as="geometry" />
        </mxCell>
        <mxCell id="ju_lTgfzVeVkISwV9ZIi-123" style="edgeStyle=orthogonalEdgeStyle;rounded=0;orthogonalLoop=1;jettySize=auto;html=1;exitX=0.5;exitY=0;exitDx=0;exitDy=0;entryX=0.502;entryY=0.992;entryDx=0;entryDy=0;entryPerimeter=0;" edge="1" parent="1" source="ju_lTgfzVeVkISwV9ZIi-70" target="ju_lTgfzVeVkISwV9ZIi-120">
          <mxGeometry relative="1" as="geometry" />
        </mxCell>
        <mxCell id="ju_lTgfzVeVkISwV9ZIi-129" style="edgeStyle=orthogonalEdgeStyle;rounded=0;orthogonalLoop=1;jettySize=auto;html=1;exitX=1;exitY=0.5;exitDx=0;exitDy=0;entryX=1;entryY=0.5;entryDx=0;entryDy=0;" edge="1" parent="1" source="ju_lTgfzVeVkISwV9ZIi-39" target="ju_lTgfzVeVkISwV9ZIi-73">
          <mxGeometry relative="1" as="geometry" />
        </mxCell>
        <mxCell id="ju_lTgfzVeVkISwV9ZIi-130" style="edgeStyle=orthogonalEdgeStyle;rounded=0;orthogonalLoop=1;jettySize=auto;html=1;exitX=1;exitY=0.5;exitDx=0;exitDy=0;entryX=0;entryY=0.5;entryDx=0;entryDy=0;" edge="1" parent="1" source="ju_lTgfzVeVkISwV9ZIi-107" target="ju_lTgfzVeVkISwV9ZIi-73">
          <mxGeometry relative="1" as="geometry" />
        </mxCell>
        <mxCell id="ju_lTgfzVeVkISwV9ZIi-144" style="edgeStyle=orthogonalEdgeStyle;rounded=0;orthogonalLoop=1;jettySize=auto;html=1;exitX=1;exitY=0.5;exitDx=0;exitDy=0;" edge="1" parent="1" source="ju_lTgfzVeVkISwV9ZIi-82" target="Zg6Z9V_iIzjyqQReN4WH-21">
          <mxGeometry relative="1" as="geometry" />
        </mxCell>
        <mxCell id="ju_lTgfzVeVkISwV9ZIi-145" style="edgeStyle=orthogonalEdgeStyle;rounded=0;orthogonalLoop=1;jettySize=auto;html=1;exitX=1;exitY=0.5;exitDx=0;exitDy=0;entryX=1;entryY=0.5;entryDx=0;entryDy=0;" edge="1" parent="1" source="ju_lTgfzVeVkISwV9ZIi-85" target="Zg6Z9V_iIzjyqQReN4WH-21">
          <mxGeometry relative="1" as="geometry">
            <mxPoint x="2631.6665649414062" y="270" as="targetPoint" />
          </mxGeometry>
        </mxCell>
        <mxCell id="ju_lTgfzVeVkISwV9ZIi-146" style="edgeStyle=orthogonalEdgeStyle;rounded=0;orthogonalLoop=1;jettySize=auto;html=1;exitX=1;exitY=0.5;exitDx=0;exitDy=0;entryX=1;entryY=0.5;entryDx=0;entryDy=0;" edge="1" parent="1" source="ju_lTgfzVeVkISwV9ZIi-76" target="Zg6Z9V_iIzjyqQReN4WH-21">
          <mxGeometry relative="1" as="geometry" />
        </mxCell>
        <mxCell id="ju_lTgfzVeVkISwV9ZIi-147" style="edgeStyle=orthogonalEdgeStyle;rounded=0;orthogonalLoop=1;jettySize=auto;html=1;exitX=1;exitY=0.5;exitDx=0;exitDy=0;entryX=1;entryY=0.5;entryDx=0;entryDy=0;" edge="1" parent="1" source="ju_lTgfzVeVkISwV9ZIi-79" target="Zg6Z9V_iIzjyqQReN4WH-21">
          <mxGeometry relative="1" as="geometry">
            <mxPoint x="2630" y="260" as="targetPoint" />
          </mxGeometry>
        </mxCell>
        <mxCell id="ju_lTgfzVeVkISwV9ZIi-148" style="edgeStyle=orthogonalEdgeStyle;rounded=0;orthogonalLoop=1;jettySize=auto;html=1;exitX=0;exitY=0.5;exitDx=0;exitDy=0;entryX=1;entryY=0.5;entryDx=0;entryDy=0;" edge="1" parent="1" source="ju_lTgfzVeVkISwV9ZIi-82" target="ju_lTgfzVeVkISwV9ZIi-51">
          <mxGeometry relative="1" as="geometry" />
        </mxCell>
        <mxCell id="ju_lTgfzVeVkISwV9ZIi-149" style="edgeStyle=orthogonalEdgeStyle;rounded=0;orthogonalLoop=1;jettySize=auto;html=1;exitX=0;exitY=0.5;exitDx=0;exitDy=0;entryX=1;entryY=0.5;entryDx=0;entryDy=0;" edge="1" parent="1" source="ju_lTgfzVeVkISwV9ZIi-85" target="ju_lTgfzVeVkISwV9ZIi-48">
          <mxGeometry relative="1" as="geometry" />
        </mxCell>
        <mxCell id="ju_lTgfzVeVkISwV9ZIi-150" style="edgeStyle=orthogonalEdgeStyle;rounded=0;orthogonalLoop=1;jettySize=auto;html=1;exitX=0;exitY=0.5;exitDx=0;exitDy=0;entryX=1.004;entryY=0.67;entryDx=0;entryDy=0;entryPerimeter=0;" edge="1" parent="1" source="ju_lTgfzVeVkISwV9ZIi-76" target="ju_lTgfzVeVkISwV9ZIi-39">
          <mxGeometry relative="1" as="geometry" />
        </mxCell>
        <mxCell id="ju_lTgfzVeVkISwV9ZIi-151" style="edgeStyle=orthogonalEdgeStyle;rounded=0;orthogonalLoop=1;jettySize=auto;html=1;exitX=0;exitY=0.5;exitDx=0;exitDy=0;entryX=1;entryY=0.5;entryDx=0;entryDy=0;" edge="1" parent="1" source="ju_lTgfzVeVkISwV9ZIi-79" target="ju_lTgfzVeVkISwV9ZIi-109">
          <mxGeometry relative="1" as="geometry">
            <Array as="points">
              <mxPoint x="2050" y="1347" />
              <mxPoint x="2050" y="964" />
            </Array>
          </mxGeometry>
        </mxCell>
        <mxCell id="ju_lTgfzVeVkISwV9ZIi-153" style="edgeStyle=orthogonalEdgeStyle;rounded=0;orthogonalLoop=1;jettySize=auto;html=1;exitX=1;exitY=0.5;exitDx=0;exitDy=0;entryX=0;entryY=0.5;entryDx=0;entryDy=0;" edge="1" parent="1" source="ju_lTgfzVeVkISwV9ZIi-15" target="ju_lTgfzVeVkISwV9ZIi-61">
          <mxGeometry relative="1" as="geometry" />
        </mxCell>
        <mxCell id="ju_lTgfzVeVkISwV9ZIi-154" style="edgeStyle=orthogonalEdgeStyle;rounded=0;orthogonalLoop=1;jettySize=auto;html=1;exitX=1;exitY=0.5;exitDx=0;exitDy=0;entryX=0;entryY=0.5;entryDx=0;entryDy=0;" edge="1" parent="1" source="ju_lTgfzVeVkISwV9ZIi-18" target="ju_lTgfzVeVkISwV9ZIi-61">
          <mxGeometry relative="1" as="geometry" />
        </mxCell>
        <mxCell id="ju_lTgfzVeVkISwV9ZIi-155" style="edgeStyle=orthogonalEdgeStyle;rounded=0;orthogonalLoop=1;jettySize=auto;html=1;exitX=1;exitY=0.5;exitDx=0;exitDy=0;entryX=0;entryY=0.5;entryDx=0;entryDy=0;" edge="1" parent="1" source="ju_lTgfzVeVkISwV9ZIi-21" target="ju_lTgfzVeVkISwV9ZIi-61">
          <mxGeometry relative="1" as="geometry" />
        </mxCell>
        <mxCell id="ju_lTgfzVeVkISwV9ZIi-156" style="edgeStyle=orthogonalEdgeStyle;rounded=0;orthogonalLoop=1;jettySize=auto;html=1;exitX=1;exitY=0.5;exitDx=0;exitDy=0;entryX=0;entryY=0.5;entryDx=0;entryDy=0;" edge="1" parent="1" source="ju_lTgfzVeVkISwV9ZIi-24" target="ju_lTgfzVeVkISwV9ZIi-61">
          <mxGeometry relative="1" as="geometry" />
        </mxCell>
        <mxCell id="ju_lTgfzVeVkISwV9ZIi-161" style="edgeStyle=orthogonalEdgeStyle;rounded=0;orthogonalLoop=1;jettySize=auto;html=1;exitX=0.5;exitY=0;exitDx=0;exitDy=0;entryX=1;entryY=0.5;entryDx=0;entryDy=0;" edge="1" parent="1" source="ju_lTgfzVeVkISwV9ZIi-158" target="Zg6Z9V_iIzjyqQReN4WH-7">
          <mxGeometry relative="1" as="geometry" />
        </mxCell>
        <mxCell id="ju_lTgfzVeVkISwV9ZIi-158" value="Player" style="swimlane;fontStyle=1;align=center;verticalAlign=top;childLayout=stackLayout;horizontal=1;startSize=26;horizontalStack=0;resizeParent=1;resizeParentMax=0;resizeLast=0;collapsible=1;marginBottom=0;whiteSpace=wrap;html=1;" vertex="1" parent="1">
          <mxGeometry x="570" y="420" width="160" height="88" as="geometry" />
        </mxCell>
        <mxCell id="ju_lTgfzVeVkISwV9ZIi-159" value="- Username" style="text;strokeColor=none;fillColor=none;align=left;verticalAlign=top;spacingLeft=4;spacingRight=4;overflow=hidden;rotatable=0;points=[[0,0.5],[1,0.5]];portConstraint=eastwest;whiteSpace=wrap;html=1;" vertex="1" parent="ju_lTgfzVeVkISwV9ZIi-158">
          <mxGeometry y="26" width="160" height="54" as="geometry" />
        </mxCell>
        <mxCell id="ju_lTgfzVeVkISwV9ZIi-160" value="" style="line;strokeWidth=1;fillColor=none;align=left;verticalAlign=middle;spacingTop=-1;spacingLeft=3;spacingRight=3;rotatable=0;labelPosition=right;points=[];portConstraint=eastwest;strokeColor=inherit;" vertex="1" parent="ju_lTgfzVeVkISwV9ZIi-158">
          <mxGeometry y="80" width="160" height="8" as="geometry" />
        </mxCell>
        <mxCell id="ju_lTgfzVeVkISwV9ZIi-162" style="edgeStyle=orthogonalEdgeStyle;rounded=0;orthogonalLoop=1;jettySize=auto;html=1;exitX=0;exitY=0.5;exitDx=0;exitDy=0;entryX=0;entryY=0.5;entryDx=0;entryDy=0;" edge="1" parent="1" source="ju_lTgfzVeVkISwV9ZIi-24" target="ju_lTgfzVeVkISwV9ZIi-159">
          <mxGeometry relative="1" as="geometry" />
        </mxCell>
        <mxCell id="ju_lTgfzVeVkISwV9ZIi-163" value="Music" style="swimlane;fontStyle=1;align=center;verticalAlign=top;childLayout=stackLayout;horizontal=1;startSize=26;horizontalStack=0;resizeParent=1;resizeParentMax=0;resizeLast=0;collapsible=1;marginBottom=0;whiteSpace=wrap;html=1;" vertex="1" parent="1">
          <mxGeometry x="-400" y="310" width="160" height="94" as="geometry" />
        </mxCell>
        <mxCell id="ju_lTgfzVeVkISwV9ZIi-165" value="" style="line;strokeWidth=1;fillColor=none;align=left;verticalAlign=middle;spacingTop=-1;spacingLeft=3;spacingRight=3;rotatable=0;labelPosition=right;points=[];portConstraint=eastwest;strokeColor=inherit;" vertex="1" parent="ju_lTgfzVeVkISwV9ZIi-163">
          <mxGeometry y="26" width="160" height="8" as="geometry" />
        </mxCell>
        <mxCell id="ju_lTgfzVeVkISwV9ZIi-166" value="&amp;nbsp;" style="text;strokeColor=none;fillColor=none;align=left;verticalAlign=top;spacingLeft=4;spacingRight=4;overflow=hidden;rotatable=0;points=[[0,0.5],[1,0.5]];portConstraint=eastwest;whiteSpace=wrap;html=1;" vertex="1" parent="ju_lTgfzVeVkISwV9ZIi-163">
          <mxGeometry y="34" width="160" height="60" as="geometry" />
        </mxCell>
        <mxCell id="ju_lTgfzVeVkISwV9ZIi-167" value="SFX" style="swimlane;fontStyle=1;align=center;verticalAlign=top;childLayout=stackLayout;horizontal=1;startSize=26;horizontalStack=0;resizeParent=1;resizeParentMax=0;resizeLast=0;collapsible=1;marginBottom=0;whiteSpace=wrap;html=1;" vertex="1" parent="1">
          <mxGeometry x="-400" y="440" width="160" height="94" as="geometry" />
        </mxCell>
        <mxCell id="ju_lTgfzVeVkISwV9ZIi-168" value="" style="line;strokeWidth=1;fillColor=none;align=left;verticalAlign=middle;spacingTop=-1;spacingLeft=3;spacingRight=3;rotatable=0;labelPosition=right;points=[];portConstraint=eastwest;strokeColor=inherit;" vertex="1" parent="ju_lTgfzVeVkISwV9ZIi-167">
          <mxGeometry y="26" width="160" height="8" as="geometry" />
        </mxCell>
        <mxCell id="ju_lTgfzVeVkISwV9ZIi-169" value="&amp;nbsp;" style="text;strokeColor=none;fillColor=none;align=left;verticalAlign=top;spacingLeft=4;spacingRight=4;overflow=hidden;rotatable=0;points=[[0,0.5],[1,0.5]];portConstraint=eastwest;whiteSpace=wrap;html=1;" vertex="1" parent="ju_lTgfzVeVkISwV9ZIi-167">
          <mxGeometry y="34" width="160" height="60" as="geometry" />
        </mxCell>
        <mxCell id="ju_lTgfzVeVkISwV9ZIi-170" style="edgeStyle=orthogonalEdgeStyle;rounded=0;orthogonalLoop=1;jettySize=auto;html=1;exitX=1;exitY=0.5;exitDx=0;exitDy=0;" edge="1" parent="1" source="ju_lTgfzVeVkISwV9ZIi-166" target="Zg6Z9V_iIzjyqQReN4WH-25">
          <mxGeometry relative="1" as="geometry" />
        </mxCell>
        <mxCell id="ju_lTgfzVeVkISwV9ZIi-171" style="edgeStyle=orthogonalEdgeStyle;rounded=0;orthogonalLoop=1;jettySize=auto;html=1;exitX=1;exitY=0.5;exitDx=0;exitDy=0;entryX=0;entryY=0.5;entryDx=0;entryDy=0;" edge="1" parent="1" source="ju_lTgfzVeVkISwV9ZIi-169" target="Zg6Z9V_iIzjyqQReN4WH-25">
          <mxGeometry relative="1" as="geometry">
            <mxPoint x="-190" y="350" as="targetPoint" />
          </mxGeometry>
        </mxCell>
      </root>
    </mxGraphModel>
  </diagram>
</mxfile>
